<svg width="1200" height="760" viewBox="0 0 1200 760" fill="none" xmlns="http://www.w3.org/2000/svg">
  <rect width="1200" height="760" rx="40" fill="#F7F4EE"/>
  <rect x="38" y="38" width="1124" height="684" rx="28" fill="#FFFFFF" stroke="#D9E3EE" stroke-width="2"/>
  <rect x="70" y="70" width="240" height="620" rx="24" fill="#FFF7EE" stroke="#E5D6C8"/>
  <rect x="94" y="108" width="160" height="22" rx="11" fill="#F06923" fill-opacity="0.15"/>
  <circle cx="110" cy="119" r="8" fill="#F06923"/>
  <rect x="126" y="113" width="104" height="12" rx="6" fill="#C8561A"/>
  <rect x="94" y="176" width="192" height="64" rx="18" fill="#FFE8CF" stroke="#F2C99C"/>
  <rect x="118" y="198" width="120" height="10" rx="5" fill="#B96125"/>
  <rect x="118" y="216" width="84" height="10" rx="5" fill="#D29055"/>
  <rect x="94" y="260" width="192" height="52" rx="18" fill="#FFFFFF"/>
  <rect x="118" y="281" width="110" height="10" rx="5" fill="#8A9AAE"/>
  <rect x="94" y="332" width="192" height="52" rx="18" fill="#FFFFFF"/>
  <rect x="118" y="353" width="142" height="10" rx="5" fill="#8A9AAE"/>
  <rect x="94" y="404" width="192" height="52" rx="18" fill="#FFFFFF"/>
  <rect x="118" y="425" width="126" height="10" rx="5" fill="#8A9AAE"/>
  <rect x="94" y="476" width="192" height="52" rx="18" fill="#FFFFFF"/>
  <rect x="118" y="497" width="134" height="10" rx="5" fill="#8A9AAE"/>
  <rect x="340" y="70" width="790" height="72" rx="24" fill="#F9FBFD" stroke="#D9E3EE"/>
  <rect x="372" y="95" width="190" height="22" rx="11" fill="#EEF4FA"/>
  <rect x="390" y="101" width="154" height="10" rx="5" fill="#6C7E92"/>
  <rect x="994" y="90" width="54" height="32" rx="16" fill="#FFF3E4" stroke="#F1D4B0"/>
  <circle cx="1021" cy="106" r="10" fill="#F06923"/>
  <rect x="1062" y="86" width="68" height="40" rx="20" fill="#C8561A"/>
  <rect x="372" y="174" width="726" height="220" rx="28" fill="#FDFEFF" stroke="#D9E3EE"/>
  <rect x="404" y="210" width="218" height="16" rx="8" fill="#F06923" fill-opacity="0.15"/>
  <rect x="404" y="244" width="404" height="24" rx="12" fill="#243B63"/>
  <rect x="404" y="286" width="506" height="14" rx="7" fill="#6B809C"/>
  <rect x="404" y="312" width="478" height="14" rx="7" fill="#6B809C"/>
  <rect x="404" y="350" width="220" height="110" rx="24" fill="#F7FAFD" stroke="#D9E3EE"/>
  <rect x="430" y="378" width="118" height="12" rx="6" fill="#8498AE"/>
  <rect x="430" y="406" width="102" height="24" rx="12" fill="#2E496F"/>
  <rect x="430" y="442" width="150" height="12" rx="6" fill="#8498AE"/>
  <rect x="372" y="426" width="230" height="118" rx="24" fill="#FFFFFF"/>
  <rect x="632" y="426" width="230" height="118" rx="24" fill="#FFFFFF"/>
  <rect x="892" y="426" width="206" height="118" rx="24" fill="#FFFFFF"/>
  <rect x="372" y="454" width="118" height="12" rx="6" fill="#8498AE"/>
  <rect x="372" y="484" width="72" height="36" rx="18" fill="#243B63"/>
  <rect x="632" y="454" width="126" height="12" rx="6" fill="#8498AE"/>
  <rect x="632" y="484" width="126" height="36" rx="18" fill="#F06923" fill-opacity="0.16"/>
  <rect x="892" y="454" width="122" height="12" rx="6" fill="#8498AE"/>
  <rect x="892" y="484" width="110" height="36" rx="18" fill="#DFF4EA"/>
  <rect x="372" y="574" width="428" height="116" rx="26" fill="#FFFFFF" stroke="#D9E3EE"/>
  <rect x="832" y="574" width="266" height="116" rx="26" fill="#FFF8F1" stroke="#F1D4B0"/>
  <path d="M416 652H758" stroke="#D9E3EE" stroke-width="2"/>
  <path d="M432 640C458 616 478 620 508 648C538 676 570 682 602 646C636 610 664 602 698 626C720 642 732 642 748 636" stroke="#E2651A" stroke-width="8" stroke-linecap="round"/>
  <path d="M432 654C472 650 514 652 560 656C606 660 654 662 714 656C728 654 738 654 748 654" stroke="#F2B53A" stroke-width="4" stroke-linecap="round"/>
  <rect x="862" y="604" width="114" height="12" rx="6" fill="#9E7C5A"/>
  <rect x="862" y="634" width="146" height="12" rx="6" fill="#C7A482"/>
  <rect x="862" y="658" width="120" height="12" rx="6" fill="#C7A482"/>
</svg>
