<svg width="1200" height="620" viewBox="0 0 1200 620" fill="none" xmlns="http://www.w3.org/2000/svg">
  <rect width="1200" height="620" rx="38" fill="#F8F5EF"/>
  <rect x="58" y="58" width="1084" height="504" rx="30" fill="#FFFFFF" stroke="#DCE5EF"/>
  <rect x="96" y="100" width="312" height="196" rx="24" fill="#FDFEFF" stroke="#DCE5EF"/>
  <rect x="126" y="132" width="144" height="14" rx="7" fill="#7C90A7"/>
  <rect x="126" y="170" width="84" height="42" rx="21" fill="#DFF4EA"/>
  <rect x="224" y="170" width="100" height="42" rx="21" fill="#FFE8CF"/>
  <rect x="126" y="238" width="78" height="12" rx="6" fill="#8C7E70"/>
  <rect x="126" y="260" width="156" height="12" rx="6" fill="#B79C80"/>
  <rect x="444" y="100" width="660" height="196" rx="24" fill="#FDFEFF" stroke="#DCE5EF"/>
  <rect x="480" y="132" width="180" height="14" rx="7" fill="#7C90A7"/>
  <path d="M506 250L560 214L604 228L662 176L718 192L776 148L834 170L902 120L1040 120" stroke="#E2651A" stroke-width="8" stroke-linecap="round" stroke-linejoin="round"/>
  <path d="M506 258C560 254 616 258 674 264C732 270 800 268 874 254C934 244 990 236 1042 242" stroke="#F3B340" stroke-width="4" stroke-linecap="round"/>
  <rect x="96" y="334" width="490" height="180" rx="24" fill="#FFF8F1" stroke="#F1D4B0"/>
  <rect x="126" y="368" width="152" height="14" rx="7" fill="#A0734B"/>
  <rect x="126" y="412" width="124" height="12" rx="6" fill="#C29163"/>
  <rect x="126" y="436" width="188" height="12" rx="6" fill="#C29163"/>
  <rect x="126" y="460" width="166" height="12" rx="6" fill="#C29163"/>
  <circle cx="468" cy="422" r="54" fill="#FFFFFF" stroke="#F1D4B0" stroke-width="14"/>
  <path d="M468 422L496 394" stroke="#E2651A" stroke-width="10" stroke-linecap="round"/>
  <circle cx="468" cy="422" r="8" fill="#E2651A"/>
  <rect x="622" y="334" width="482" height="180" rx="24" fill="#F7FAFD" stroke="#DCE5EF"/>
  <rect x="652" y="366" width="178" height="14" rx="7" fill="#7C90A7"/>
  <rect x="652" y="410" width="150" height="34" rx="17" fill="#DFF4EA"/>
  <rect x="820" y="410" width="142" height="34" rx="17" fill="#FFE8CF"/>
  <rect x="980" y="410" width="94" height="34" rx="17" fill="#EADCF7"/>
  <rect x="652" y="462" width="218" height="12" rx="6" fill="#7C90A7"/>
  <rect x="652" y="486" width="178" height="12" rx="6" fill="#7C90A7"/>
</svg>
